<svg width="1101" height="667" viewBox="0 0 1101 667" fill="none" xmlns="http://www.w3.org/2000/svg">
<g id="GENIUS">
<g id="undraw_dev_focus_b9xo (1) 1">
<g clip-path="url(#clip0)">
<path id="Vector" d="M633.929 250.416C654.03 250.416 670.325 234.121 670.325 214.02C670.325 193.919 654.03 177.624 633.929 177.624C613.829 177.624 597.534 193.919 597.534 214.02C597.534 234.121 613.829 250.416 633.929 250.416Z" fill="#2F2E41"/>
<path id="Vector_2" d="M644.069 178.626C650.368 178.627 656.559 180.262 662.036 183.372C667.514 186.482 672.091 190.96 675.319 196.368C678.548 201.777 680.318 207.93 680.457 214.227C680.595 220.525 679.097 226.75 676.109 232.295C679.264 228.347 681.563 223.785 682.857 218.9C684.152 214.014 684.415 208.913 683.63 203.92C682.844 198.928 681.027 194.154 678.294 189.902C675.561 185.651 671.973 182.015 667.757 179.227C663.542 176.439 658.792 174.56 653.81 173.709C648.828 172.858 643.724 173.055 638.822 174.286C633.92 175.517 629.328 177.756 625.34 180.859C621.351 183.963 618.052 187.864 615.654 192.312C619.057 188.041 623.378 184.592 628.298 182.223C633.218 179.853 638.609 178.624 644.069 178.626V178.626Z" fill="#2F2E41"/>
<path id="Vector_3" d="M565.919 213.943C624.965 213.943 672.831 166.077 672.831 107.03C672.831 47.9843 624.965 0.11792 565.919 0.11792C506.873 0.11792 459.006 47.9843 459.006 107.03C459.006 166.077 506.873 213.943 565.919 213.943Z" fill="#2F2E41"/>
<path id="Vector_4" d="M565.013 213.037C603.042 213.037 633.872 182.208 633.872 144.178C633.872 106.148 603.042 75.3191 565.013 75.3191C526.983 75.3191 496.154 106.148 496.154 144.178C496.154 182.208 526.983 213.037 565.013 213.037Z" fill="#FFB8B8"/>
<path id="Vector_5" d="M516.087 165.923C516.087 165.923 525.147 249.279 510.65 258.339C496.154 267.399 594.006 280.084 594.006 280.084C594.006 280.084 579.509 189.48 615.751 165.923H516.087Z" fill="#FFB8B8"/>
<path id="Vector_6" d="M603.066 243.842C603.066 243.842 630.049 231.242 591.188 235.73C552.328 240.218 518.801 223.003 518.801 223.003C518.801 223.003 507.026 211.225 505.214 223.909C503.402 236.594 510.65 260.151 470.785 263.775C430.919 267.399 394.678 256.527 380.181 283.708C365.684 310.889 372.933 428.674 372.933 428.674C372.933 428.674 400.114 526.526 421.859 541.023C443.604 555.519 633.872 535.586 633.872 535.586L688.234 437.734V323.574C688.234 323.574 680.986 283.708 630.247 294.58C630.247 294.58 597.63 287.332 599.442 271.023C601.254 254.715 603.066 243.842 603.066 243.842Z" fill="#D0CDE1"/>
<path id="Vector_7" d="M429.05 610.271C430.17 605.391 430.92 602.631 430.92 602.631L430.34 598.661L424.37 558.121L421.86 541.021C443.6 531.961 449.04 490.281 449.04 490.281L449.86 489.791L453.57 487.571V487.561L466.89 479.571L467.16 479.411L472.54 482.991L483.47 490.281C521.71 518.401 560.65 517.901 584.68 513.471C599.37 510.761 608.5 506.591 608.5 506.591L634.86 497.801L635.68 497.531L636.49 497.651L651.95 499.991L652.23 500.041L653.51 500.231L649.93 524.981L644.74 560.951C658.45 568.211 670.64 581.851 681.3 598.661C683.66 602.381 685.947 606.251 688.16 610.271C691.04 615.471 693.79 620.881 696.41 626.421C696.73 627.081 697.04 627.751 697.35 628.421C698.36 630.591 699.36 632.781 700.33 634.981H424.25C424.61 632.771 424.97 630.661 425.32 628.631C425.338 628.562 425.352 628.492 425.36 628.421C425.49 627.741 425.61 627.081 425.72 626.421C426.94 619.821 428.12 614.311 429.05 610.271Z" fill="#2F2E41"/>
<path id="Vector_8" d="M418.234 261.963C418.234 261.963 438.167 298.205 430.919 343.506C423.671 388.808 452.664 501.157 452.664 501.157L474.409 495.721C474.409 495.721 459.912 401.493 463.536 379.748C467.161 358.003 467.161 272.836 449.04 261.963C430.919 251.091 418.234 261.963 418.234 261.963Z" fill="#2F2E41"/>
<path id="Vector_9" d="M628.973 299.625L636.59 500.251L651.086 509.312C651.086 509.312 671.925 289.144 661.053 289.144H638.93C637.578 289.144 636.24 289.419 634.997 289.953C633.754 290.486 632.633 291.267 631.702 292.247C630.77 293.228 630.048 294.388 629.579 295.656C629.11 296.924 628.904 298.275 628.973 299.625V299.625Z" fill="#2F2E41"/>
<path id="Vector_10" d="M462.63 496.627C467.634 496.627 471.691 492.57 471.691 487.566C471.691 482.563 467.634 478.506 462.63 478.506C457.626 478.506 453.57 482.563 453.57 487.566C453.57 492.57 457.626 496.627 462.63 496.627Z" fill="#F6AAF9"/>
<path id="Vector_11" d="M643.838 505.687C648.842 505.687 652.898 501.631 652.898 496.627C652.898 491.623 648.842 487.566 643.838 487.566C638.834 487.566 634.778 491.623 634.778 496.627C634.778 501.631 638.834 505.687 643.838 505.687Z" fill="#F6AAF9"/>
<path id="Vector_12" d="M506.12 58.104V126.963H522.067L542.362 105.218L539.644 126.963H610.133L605.784 105.218L614.482 126.963H625.717V58.104H506.12Z" fill="#2F2E41"/>
<path id="Vector_13" d="M495.248 139.648C498.25 139.648 500.684 135.186 500.684 129.682C500.684 124.177 498.25 119.715 495.248 119.715C492.245 119.715 489.812 124.177 489.812 129.682C489.812 135.186 492.245 139.648 495.248 139.648Z" fill="#FFB8B8"/>
<path id="Vector_14" d="M634.778 139.648C637.78 139.648 640.214 135.186 640.214 129.682C640.214 124.177 637.78 119.715 634.778 119.715C631.775 119.715 629.341 124.177 629.341 129.682C629.341 135.186 631.775 139.648 634.778 139.648Z" fill="#FFB8B8"/>
<path id="Vector_15" d="M671.925 495.721C671.925 495.721 589.476 480.318 584.039 507.499C578.603 534.68 675.549 522.902 675.549 522.902L671.925 495.721Z" fill="#FFB8B8"/>
<!-- <path id="Rightarm" d="M670.113 309.077C670.113 309.077 867.629 466.728 831.388 504.781C795.146 542.835 657.429 531.963 657.429 531.963L666.489 486.661L746.22 477.6L706.355 437.735L670.113 441.359V309.077Z" fill="#D0CDE1"/> -->
<path id="Vector_16" d="M378.369 571.828L403.738 591.761C403.738 591.761 421.859 647.935 449.04 631.627C476.221 615.318 423.671 557.331 423.671 557.331L392.865 546.459L378.369 571.828Z" fill="#FFB8B8"/>
<path id="Leftarm" d="M403.738 280.084L378.437 287.698C378.437 287.698 202.597 417.802 195.349 454.043C188.101 490.285 229.779 510.217 229.779 510.217L387.429 584.513L403.738 541.023L329.443 502.969C329.443 502.969 334.879 492.097 313.134 490.285C291.389 488.472 287.765 464.916 287.765 464.916C287.765 464.916 331.255 397.869 354.812 412.365C378.369 426.862 385.617 437.734 385.617 437.734L403.738 280.084Z" fill="#D0CDE1"/>
<path id="Vector_17" d="M764.6 616.481V622.551C764.603 624.217 764.295 625.869 763.69 627.421C763.421 628.113 763.097 628.782 762.72 629.421C761.528 631.421 759.837 633.078 757.812 634.228C755.787 635.378 753.499 635.982 751.17 635.981H304.62C302.291 635.982 300.003 635.378 297.978 634.228C295.953 633.078 294.262 631.421 293.07 629.421C292.693 628.782 292.369 628.113 292.1 627.421C291.495 625.869 291.187 624.217 291.19 622.551V616.481C291.19 614.717 291.537 612.97 292.211 611.341C292.886 609.711 293.875 608.231 295.122 606.983C296.37 605.736 297.85 604.747 299.48 604.072C301.11 603.397 302.856 603.05 304.62 603.051H330.36V600.221C330.36 600.147 330.374 600.074 330.402 600.006C330.43 599.938 330.472 599.877 330.524 599.825C330.576 599.773 330.638 599.731 330.706 599.703C330.774 599.675 330.846 599.661 330.92 599.661H344.35C344.424 599.661 344.496 599.675 344.564 599.703C344.632 599.731 344.694 599.773 344.746 599.825C344.798 599.877 344.84 599.938 344.868 600.006C344.896 600.074 344.91 600.147 344.91 600.221V603.051H353.3V600.221C353.3 600.147 353.314 600.074 353.342 600.006C353.37 599.938 353.412 599.877 353.464 599.825C353.516 599.773 353.578 599.731 353.646 599.703C353.714 599.675 353.786 599.661 353.86 599.661H367.29C367.364 599.661 367.436 599.675 367.504 599.703C367.572 599.731 367.634 599.773 367.686 599.825C367.738 599.877 367.78 599.938 367.808 600.006C367.836 600.074 367.85 600.147 367.85 600.221V603.051H376.25V600.221C376.25 600.147 376.264 600.074 376.292 600.006C376.32 599.938 376.362 599.877 376.414 599.825C376.466 599.773 376.528 599.731 376.596 599.703C376.664 599.675 376.736 599.661 376.81 599.661H390.24C390.314 599.661 390.386 599.675 390.454 599.703C390.522 599.731 390.584 599.773 390.636 599.825C390.688 599.877 390.73 599.938 390.758 600.006C390.786 600.074 390.8 600.147 390.8 600.221V603.051H399.19V600.221C399.19 600.147 399.204 600.074 399.232 600.006C399.26 599.938 399.302 599.877 399.354 599.825C399.406 599.773 399.468 599.731 399.536 599.703C399.604 599.675 399.676 599.661 399.75 599.661H413.18C413.254 599.661 413.326 599.675 413.394 599.703C413.462 599.731 413.524 599.773 413.576 599.825C413.628 599.877 413.67 599.938 413.698 600.006C413.726 600.074 413.74 600.147 413.74 600.221V603.051H422.13V600.221C422.13 600.147 422.144 600.074 422.172 600.006C422.2 599.938 422.242 599.877 422.294 599.825C422.346 599.773 422.408 599.731 422.476 599.703C422.544 599.675 422.616 599.661 422.69 599.661H436.12C436.194 599.661 436.266 599.675 436.334 599.703C436.402 599.731 436.464 599.773 436.516 599.825C436.568 599.877 436.61 599.938 436.638 600.006C436.666 600.074 436.68 600.147 436.68 600.221V603.051H445.08V600.221C445.08 600.147 445.094 600.074 445.122 600.006C445.15 599.938 445.192 599.877 445.244 599.825C445.296 599.773 445.358 599.731 445.426 599.703C445.494 599.675 445.566 599.661 445.64 599.661H459.07C459.144 599.661 459.216 599.675 459.284 599.703C459.352 599.731 459.414 599.773 459.466 599.825C459.518 599.877 459.56 599.938 459.588 600.006C459.616 600.074 459.63 600.147 459.63 600.221V603.051H468.02V600.221C468.02 600.147 468.034 600.074 468.062 600.006C468.09 599.938 468.132 599.877 468.184 599.825C468.236 599.773 468.298 599.731 468.366 599.703C468.434 599.675 468.506 599.661 468.58 599.661H573.78C573.854 599.661 573.926 599.675 573.994 599.703C574.062 599.731 574.124 599.773 574.176 599.825C574.228 599.877 574.27 599.938 574.298 600.006C574.326 600.074 574.34 600.147 574.34 600.221V603.051H582.74V600.221C582.74 600.147 582.754 600.074 582.782 600.006C582.811 599.938 582.852 599.877 582.904 599.825C582.956 599.773 583.018 599.731 583.086 599.703C583.154 599.675 583.226 599.661 583.3 599.661H596.73C596.878 599.662 597.02 599.722 597.124 599.826C597.229 599.931 597.289 600.073 597.29 600.221V603.051H605.68V600.221C605.68 600.147 605.694 600.074 605.722 600.006C605.75 599.938 605.792 599.877 605.844 599.825C605.896 599.773 605.958 599.731 606.026 599.703C606.094 599.675 606.166 599.661 606.24 599.661H619.67C619.744 599.661 619.816 599.675 619.884 599.703C619.952 599.731 620.014 599.773 620.066 599.825C620.118 599.877 620.16 599.938 620.188 600.006C620.216 600.074 620.23 600.147 620.23 600.221V603.051H628.62V600.221C628.62 600.147 628.634 600.074 628.662 600.006C628.69 599.938 628.732 599.877 628.784 599.825C628.836 599.773 628.898 599.731 628.966 599.703C629.034 599.675 629.106 599.661 629.18 599.661H642.61C642.684 599.661 642.756 599.675 642.824 599.703C642.892 599.731 642.954 599.773 643.006 599.825C643.058 599.877 643.1 599.938 643.128 600.006C643.156 600.074 643.17 600.147 643.17 600.221V603.051H651.57V600.221C651.57 600.147 651.584 600.074 651.612 600.006C651.64 599.938 651.682 599.877 651.734 599.825C651.786 599.773 651.848 599.731 651.916 599.703C651.984 599.675 652.056 599.661 652.13 599.661H665.56C665.707 599.663 665.847 599.723 665.95 599.828C666.053 599.932 666.111 600.074 666.11 600.221V603.051H674.51V600.221C674.51 600.147 674.524 600.074 674.552 600.006C674.58 599.938 674.622 599.877 674.674 599.825C674.726 599.773 674.788 599.731 674.856 599.703C674.924 599.675 674.996 599.661 675.07 599.661H688.5C688.574 599.661 688.646 599.675 688.714 599.703C688.782 599.731 688.844 599.773 688.896 599.825C688.948 599.877 688.99 599.938 689.018 600.006C689.046 600.074 689.06 600.147 689.06 600.221V603.051H697.45V600.221C697.45 600.147 697.464 600.074 697.492 600.006C697.52 599.938 697.562 599.877 697.614 599.825C697.666 599.773 697.728 599.731 697.796 599.703C697.864 599.675 697.936 599.661 698.01 599.661H711.44C711.514 599.661 711.586 599.675 711.654 599.703C711.722 599.731 711.784 599.773 711.836 599.825C711.888 599.877 711.93 599.938 711.958 600.006C711.986 600.074 712 600.147 712 600.221V603.051H751.17C752.934 603.05 754.68 603.397 756.31 604.072C757.94 604.747 759.42 605.736 760.667 606.983C761.915 608.231 762.904 609.711 763.579 611.341C764.253 612.971 764.6 614.717 764.6 616.481V616.481Z" fill="#3F3D56"/>
<path id="Vector_18" d="M894.448 627.416H161.448V629.416H894.448V627.416Z" fill="#3F3D56"/>
<path id="Vector_19" d="M735.302 355.431H568.859V352H493.388V355.431H326.259C323.273 355.431 320.409 356.617 318.298 358.728C316.186 360.84 315 363.703 315 366.689V594.601C315 597.587 316.186 600.45 318.298 602.562C320.409 604.673 323.273 605.859 326.259 605.859H735.302C738.288 605.859 741.152 604.673 743.263 602.562C745.375 600.45 746.561 597.587 746.561 594.601V366.689C746.561 365.211 746.27 363.747 745.704 362.381C745.138 361.015 744.309 359.774 743.263 358.728C742.218 357.683 740.977 356.853 739.611 356.288C738.245 355.722 736.781 355.431 735.302 355.431V355.431Z" fill="#3F3D56"/>
<path id="Vector_20" d="M524.448 465.416C538.255 465.416 549.448 454.223 549.448 440.416C549.448 426.609 538.255 415.416 524.448 415.416C510.641 415.416 499.448 426.609 499.448 440.416C499.448 454.223 510.641 465.416 524.448 465.416Z" stroke="#D0CDE1" stroke-width="2" stroke-miterlimit="10"/>
<path id="Vector_21" d="M516.448 474.416C530.255 474.416 541.448 463.223 541.448 449.416C541.448 435.609 530.255 424.416 516.448 424.416C502.641 424.416 491.448 435.609 491.448 449.416C491.448 463.223 502.641 474.416 516.448 474.416Z" fill="#D0CDE1"/>
<path id="Vector_22" d="M1040.02 663.551H851.02V665.812H1040.02V663.551Z" fill="#3F3D56"/>
<path id="Vector_23" d="M399.789 258.254L273.582 131.051H214V129.051H274.417L274.711 129.348L401.211 256.848L399.789 258.254Z" fill="#3F3D56"/>
<path id="Vector_24" d="M723.422 249.203L849.628 122H909.211V120H848.793L848.5 120.297L722 247.797L723.422 249.203Z" fill="#3F3D56"/>
<path id="Vector_25" d="M132 70H-14V98.8771H132V70Z" fill="#D0CDE1"/>
<path id="Vector_26" d="M146 112.651H6.10352e-05V141.528H146V112.651Z" fill="#D0CDE1"/>
<path id="CSS" d="M28.4766 129.842C28.3535 130.895 27.9639 131.708 27.3076 132.282C26.6559 132.852 25.7878 133.137 24.7031 133.137C23.5273 133.137 22.584 132.715 21.873 131.872C21.1667 131.029 20.8135 129.901 20.8135 128.488V127.531C20.8135 126.606 20.9775 125.793 21.3057 125.091C21.6383 124.389 22.1077 123.851 22.7139 123.478C23.32 123.099 24.0218 122.91 24.8193 122.91C25.8766 122.91 26.7243 123.206 27.3623 123.799C28.0003 124.387 28.3717 125.202 28.4766 126.246H27.1572C27.0433 125.453 26.7949 124.879 26.4121 124.523C26.0339 124.168 25.5029 123.99 24.8193 123.99C23.9808 123.99 23.3223 124.3 22.8438 124.92C22.3698 125.54 22.1328 126.422 22.1328 127.565V128.529C22.1328 129.609 22.3584 130.468 22.8096 131.106C23.2607 131.744 23.8919 132.063 24.7031 132.063C25.4323 132.063 25.9906 131.899 26.3779 131.571C26.7699 131.239 27.0296 130.662 27.1572 129.842H28.4766ZM33.207 128.563C32.0814 128.24 31.2611 127.843 30.7461 127.374C30.2357 126.9 29.9805 126.317 29.9805 125.624C29.9805 124.84 30.2926 124.193 30.917 123.683C31.5459 123.168 32.3617 122.91 33.3643 122.91C34.0479 122.91 34.6562 123.042 35.1895 123.307C35.7272 123.571 36.1419 123.936 36.4336 124.4C36.7298 124.865 36.8779 125.373 36.8779 125.925H35.5586C35.5586 125.323 35.3672 124.852 34.9844 124.51C34.6016 124.163 34.0615 123.99 33.3643 123.99C32.7171 123.99 32.2113 124.134 31.8467 124.421C31.4867 124.703 31.3066 125.098 31.3066 125.604C31.3066 126.009 31.4775 126.353 31.8193 126.636C32.1657 126.914 32.7513 127.169 33.5762 127.401C34.4056 127.634 35.0527 127.891 35.5176 128.174C35.987 128.452 36.3333 128.778 36.5566 129.151C36.7845 129.525 36.8984 129.965 36.8984 130.471C36.8984 131.277 36.584 131.924 35.9551 132.412C35.3262 132.895 34.4854 133.137 33.4326 133.137C32.749 133.137 32.111 133.007 31.5186 132.747C30.9261 132.483 30.4681 132.123 30.1445 131.667C29.8255 131.211 29.666 130.694 29.666 130.115H30.9854C30.9854 130.717 31.2064 131.193 31.6484 131.544C32.0951 131.89 32.6898 132.063 33.4326 132.063C34.1253 132.063 34.6562 131.922 35.0254 131.64C35.3945 131.357 35.5791 130.972 35.5791 130.484C35.5791 129.997 35.4082 129.621 35.0664 129.356C34.7246 129.088 34.1048 128.823 33.207 128.563ZM41.5195 128.563C40.3939 128.24 39.5736 127.843 39.0586 127.374C38.5482 126.9 38.293 126.317 38.293 125.624C38.293 124.84 38.6051 124.193 39.2295 123.683C39.8584 123.168 40.6742 122.91 41.6768 122.91C42.3604 122.91 42.9688 123.042 43.502 123.307C44.0397 123.571 44.4544 123.936 44.7461 124.4C45.0423 124.865 45.1904 125.373 45.1904 125.925H43.8711C43.8711 125.323 43.6797 124.852 43.2969 124.51C42.9141 124.163 42.374 123.99 41.6768 123.99C41.0296 123.99 40.5238 124.134 40.1592 124.421C39.7992 124.703 39.6191 125.098 39.6191 125.604C39.6191 126.009 39.79 126.353 40.1318 126.636C40.4782 126.914 41.0638 127.169 41.8887 127.401C42.7181 127.634 43.3652 127.891 43.8301 128.174C44.2995 128.452 44.6458 128.778 44.8691 129.151C45.097 129.525 45.2109 129.965 45.2109 130.471C45.2109 131.277 44.8965 131.924 44.2676 132.412C43.6387 132.895 42.7979 133.137 41.7451 133.137C41.0615 133.137 40.4235 133.007 39.8311 132.747C39.2386 132.483 38.7806 132.123 38.457 131.667C38.138 131.211 37.9785 130.694 37.9785 130.115H39.2979C39.2979 130.717 39.5189 131.193 39.9609 131.544C40.4076 131.89 41.0023 132.063 41.7451 132.063C42.4378 132.063 42.9688 131.922 43.3379 131.64C43.707 131.357 43.8916 130.972 43.8916 130.484C43.8916 129.997 43.7207 129.621 43.3789 129.356C43.0371 129.088 42.4173 128.823 41.5195 128.563Z" fill="black"/>
<path id="Vector_27" d="M146 156.962H6.10352e-05V185.84H73H146V156.962Z" fill="#D0CDE1"/>
<path id="JAVASCRIPT" d="M25.3252 164.047H26.6445V171.095C26.6445 172.047 26.3574 172.792 25.7832 173.33C25.2135 173.868 24.4525 174.137 23.5 174.137C22.5111 174.137 21.7409 173.884 21.1895 173.378C20.638 172.872 20.3623 172.163 20.3623 171.252H21.6748C21.6748 171.822 21.8298 172.266 22.1396 172.585C22.4541 172.904 22.9076 173.063 23.5 173.063C24.0423 173.063 24.4798 172.893 24.8125 172.551C25.1497 172.209 25.3206 171.73 25.3252 171.115V164.047ZM34.2256 171.402H30.0557L29.1191 174H27.7656L31.5664 164.047H32.7148L36.5225 174H35.1758L34.2256 171.402ZM30.4521 170.322H33.8359L32.1406 165.667L30.4521 170.322ZM40.5557 172.257L43.3994 164.047H44.835L41.1436 174H39.9814L36.2969 164.047H37.7256L40.5557 172.257ZM51.1514 171.402H46.9814L46.0449 174H44.6914L48.4922 164.047H49.6406L53.4482 174H52.1016L51.1514 171.402ZM47.3779 170.322H50.7617L49.0664 165.667L47.3779 170.322ZM57.7207 169.563C56.5951 169.24 55.7747 168.843 55.2598 168.374C54.7493 167.9 54.4941 167.317 54.4941 166.624C54.4941 165.84 54.8063 165.193 55.4307 164.683C56.0596 164.168 56.8753 163.91 57.8779 163.91C58.5615 163.91 59.1699 164.042 59.7031 164.307C60.2409 164.571 60.6556 164.936 60.9473 165.4C61.2435 165.865 61.3916 166.373 61.3916 166.925H60.0723C60.0723 166.323 59.8809 165.852 59.498 165.51C59.1152 165.163 58.5752 164.99 57.8779 164.99C57.2308 164.99 56.7249 165.134 56.3604 165.421C56.0003 165.703 55.8203 166.098 55.8203 166.604C55.8203 167.009 55.9912 167.353 56.333 167.636C56.6794 167.914 57.265 168.169 58.0898 168.401C58.9193 168.634 59.5664 168.891 60.0312 169.174C60.5007 169.452 60.847 169.778 61.0703 170.151C61.2982 170.525 61.4121 170.965 61.4121 171.471C61.4121 172.277 61.0977 172.924 60.4688 173.412C59.8398 173.895 58.999 174.137 57.9463 174.137C57.2627 174.137 56.6247 174.007 56.0322 173.747C55.4398 173.483 54.9818 173.123 54.6582 172.667C54.3392 172.211 54.1797 171.694 54.1797 171.115H55.499C55.499 171.717 55.7201 172.193 56.1621 172.544C56.6087 172.89 57.2035 173.063 57.9463 173.063C58.639 173.063 59.1699 172.922 59.5391 172.64C59.9082 172.357 60.0928 171.972 60.0928 171.484C60.0928 170.997 59.9219 170.621 59.5801 170.356C59.2383 170.088 58.6185 169.823 57.7207 169.563ZM70.4219 170.842C70.2988 171.895 69.9092 172.708 69.2529 173.282C68.6012 173.852 67.7331 174.137 66.6484 174.137C65.4727 174.137 64.5293 173.715 63.8184 172.872C63.112 172.029 62.7588 170.901 62.7588 169.488V168.531C62.7588 167.606 62.9229 166.793 63.251 166.091C63.5837 165.389 64.0531 164.851 64.6592 164.478C65.2653 164.099 65.9671 163.91 66.7646 163.91C67.8219 163.91 68.6696 164.206 69.3076 164.799C69.9456 165.387 70.3171 166.202 70.4219 167.246H69.1025C68.9886 166.453 68.7402 165.879 68.3574 165.523C67.9792 165.168 67.4482 164.99 66.7646 164.99C65.9261 164.99 65.2676 165.3 64.7891 165.92C64.3151 166.54 64.0781 167.422 64.0781 168.565V169.529C64.0781 170.609 64.3037 171.468 64.7549 172.106C65.2061 172.744 65.8372 173.063 66.6484 173.063C67.3776 173.063 67.9359 172.899 68.3232 172.571C68.7152 172.239 68.9749 171.662 69.1025 170.842H70.4219ZM75.8701 169.974H73.5322V174H72.2129V164.047H75.5078C76.6289 164.047 77.4902 164.302 78.0918 164.812C78.6979 165.323 79.001 166.066 79.001 167.041C79.001 167.661 78.8324 168.201 78.4951 168.661C78.1624 169.121 77.6976 169.465 77.1006 169.693L79.4385 173.918V174H78.0303L75.8701 169.974ZM73.5322 168.9H75.5488C76.2005 168.9 76.7178 168.732 77.1006 168.395C77.488 168.057 77.6816 167.606 77.6816 167.041C77.6816 166.426 77.4971 165.954 77.1279 165.626C76.7633 165.298 76.2347 165.132 75.542 165.127H73.5322V168.9ZM82.2549 174H80.9424V164.047H82.2549V174ZM85.9736 170.104V174H84.6611V164.047H88.332C89.4212 164.047 90.2734 164.325 90.8887 164.881C91.5085 165.437 91.8184 166.173 91.8184 167.089C91.8184 168.055 91.5153 168.8 90.9092 169.324C90.3076 169.844 89.444 170.104 88.3184 170.104H85.9736ZM85.9736 169.03H88.332C89.0339 169.03 89.5716 168.866 89.9453 168.538C90.319 168.205 90.5059 167.727 90.5059 167.103C90.5059 166.51 90.319 166.036 89.9453 165.681C89.5716 165.325 89.0589 165.141 88.4072 165.127H85.9736V169.03ZM100.37 165.127H97.1709V174H95.8652V165.127H92.6729V164.047H100.37V165.127Z" fill="black"/>
<path id="Vector_28" opacity="0.15" d="M60.3989 68.3396H0.00012207V97.2167H60.3989V68.3396Z" fill="black"/>
<path id="Vector_29" opacity="0.15" d="M19.5536 112.651H0V141.528H19.5536V112.651Z" fill="black"/>
<path id="Vector_30" opacity="0.15" d="M115 156.962H6.10352e-05V185.84H151L115 156.962Z" fill="black"/>
<path id="Vector_31" d="M1101 62H955V88H1101V62Z" fill="#D0CDE1"/>
<path id="NODE.JS" d="M997.805 80H996.485L991.475 72.3301V80H990.155V70.0469H991.475L996.499 77.751V70.0469H997.805V80ZM1007.79 75.3447C1007.79 76.32 1007.63 77.1722 1007.3 77.9014C1006.97 78.626 1006.51 79.1797 1005.91 79.5625C1005.3 79.9453 1004.6 80.1367 1003.8 80.1367C1003.02 80.1367 1002.32 79.9453 1001.71 79.5625C1001.11 79.1751 1000.64 78.626 1000.3 77.915C999.967 77.1995 999.796 76.3724 999.787 75.4336V74.7158C999.787 73.7588 999.953 72.9134 1000.29 72.1797C1000.62 71.446 1001.09 70.8854 1001.69 70.498C1002.31 70.1061 1003 69.9102 1003.79 69.9102C1004.58 69.9102 1005.29 70.1038 1005.89 70.4912C1006.5 70.874 1006.97 71.4323 1007.3 72.166C1007.63 72.8952 1007.79 73.7451 1007.79 74.7158V75.3447ZM1006.49 74.7021C1006.49 73.5218 1006.25 72.6172 1005.78 71.9883C1005.3 71.3548 1004.64 71.0381 1003.79 71.0381C1002.96 71.0381 1002.3 71.3548 1001.82 71.9883C1001.35 72.6172 1001.11 73.4922 1001.09 74.6133V75.3447C1001.09 76.4886 1001.33 77.3887 1001.81 78.0449C1002.29 78.6966 1002.96 79.0225 1003.8 79.0225C1004.65 79.0225 1005.3 78.7148 1005.77 78.0996C1006.23 77.4798 1006.47 76.5934 1006.49 75.4404V74.7021ZM1009.76 80V70.0469H1012.57C1013.44 70.0469 1014.2 70.2383 1014.87 70.6211C1015.53 71.0039 1016.05 71.5485 1016.41 72.2549C1016.77 72.9613 1016.95 73.7725 1016.96 74.6885V75.3242C1016.96 76.263 1016.78 77.0856 1016.41 77.792C1016.05 78.4984 1015.53 79.0407 1014.86 79.4189C1014.19 79.7972 1013.41 79.9909 1012.52 80H1009.76ZM1011.07 71.127V78.9268H1012.45C1013.47 78.9268 1014.25 78.6123 1014.81 77.9834C1015.38 77.3545 1015.66 76.459 1015.66 75.2969V74.7158C1015.66 73.5856 1015.39 72.7083 1014.86 72.084C1014.33 71.4551 1013.58 71.1361 1012.6 71.127H1011.07ZM1024.57 75.3994H1020.26V78.9268H1025.27V80H1018.95V70.0469H1025.2V71.127H1020.26V74.3262H1024.57V75.3994ZM1026.73 79.3369C1026.73 79.1182 1026.8 78.9359 1026.93 78.79C1027.06 78.6442 1027.25 78.5713 1027.51 78.5713C1027.77 78.5713 1027.97 78.6442 1028.1 78.79C1028.24 78.9359 1028.31 79.1182 1028.31 79.3369C1028.31 79.5465 1028.24 79.722 1028.1 79.8633C1027.97 80.0046 1027.77 80.0752 1027.51 80.0752C1027.25 80.0752 1027.06 80.0046 1026.93 79.8633C1026.8 79.722 1026.73 79.5465 1026.73 79.3369ZM1034.77 70.0469H1036.09V77.0947C1036.09 78.0472 1035.8 78.7923 1035.22 79.3301C1034.65 79.8678 1033.89 80.1367 1032.94 80.1367C1031.95 80.1367 1031.18 79.8838 1030.63 79.3779C1030.08 78.8721 1029.8 78.1634 1029.8 77.252H1031.12C1031.12 77.8216 1031.27 78.266 1031.58 78.585C1031.9 78.904 1032.35 79.0635 1032.94 79.0635C1033.48 79.0635 1033.92 78.8926 1034.25 78.5508C1034.59 78.209 1034.76 77.7305 1034.77 77.1152V70.0469ZM1041.25 75.5635C1040.13 75.2399 1039.31 74.8434 1038.79 74.374C1038.28 73.9001 1038.03 73.3167 1038.03 72.624C1038.03 71.8402 1038.34 71.193 1038.96 70.6826C1039.59 70.1676 1040.41 69.9102 1041.41 69.9102C1042.09 69.9102 1042.7 70.0423 1043.24 70.3066C1043.77 70.571 1044.19 70.9355 1044.48 71.4004C1044.78 71.8652 1044.92 72.3734 1044.92 72.9248H1043.61C1043.61 72.3232 1043.41 71.8516 1043.03 71.5098C1042.65 71.1634 1042.11 70.9902 1041.41 70.9902C1040.76 70.9902 1040.26 71.1338 1039.89 71.4209C1039.53 71.7035 1039.35 72.0977 1039.35 72.6035C1039.35 73.0091 1039.52 73.3532 1039.87 73.6357C1040.21 73.9137 1040.8 74.1689 1041.62 74.4014C1042.45 74.6338 1043.1 74.8913 1043.56 75.1738C1044.03 75.4518 1044.38 75.7777 1044.6 76.1514C1044.83 76.5251 1044.95 76.9648 1044.95 77.4707C1044.95 78.2773 1044.63 78.9245 1044 79.4121C1043.37 79.8952 1042.53 80.1367 1041.48 80.1367C1040.8 80.1367 1040.16 80.0068 1039.57 79.7471C1038.97 79.4827 1038.51 79.1227 1038.19 78.667C1037.87 78.2113 1037.71 77.694 1037.71 77.1152H1039.03C1039.03 77.7168 1039.25 78.193 1039.7 78.5439C1040.14 78.8903 1040.74 79.0635 1041.48 79.0635C1042.17 79.0635 1042.7 78.9222 1043.07 78.6396C1043.44 78.3571 1043.63 77.972 1043.63 77.4844C1043.63 76.9967 1043.46 76.6208 1043.11 76.3564C1042.77 76.0876 1042.15 75.8232 1041.25 75.5635Z" fill="black"/>
<path id="Vector_32" d="M928.955 73.1404H900V102.096H928.955V73.1404Z" fill="#F6AAF9"/>
<path id="Vector_33" d="M928.955 116.573H900V145.528H928.955V116.573Z" fill="#F6AAF9"/>
<path id="Vector_34" d="M928.955 160.006H900V188.961H928.955V160.006Z" fill="#F6AAF9"/>
<path id="Vector_35" d="M936.955 96.0957H906V65.1401H936.955V96.0957ZM908 94.0957H934.955V67.1401H908V94.0957Z" fill="#3F3D56"/>
<path id="Vector_36" d="M1101 102H955V131H1101V102Z" fill="#D0CDE1"/>
<path id="EXPRESS" d="M997.781 121.399H993.468V124.927H998.479V126H992.155V116.047H998.41V117.127H993.468V120.326H997.781V121.399ZM1003.36 119.861L1005.75 116.047H1007.29L1004.15 120.982L1007.37 126H1005.81L1003.36 122.117L1000.9 126H999.347L1002.57 120.982L999.422 116.047H1000.96L1003.36 119.861ZM1010.2 122.104V126H1008.89V116.047H1012.56C1013.65 116.047 1014.5 116.325 1015.12 116.881C1015.74 117.437 1016.05 118.173 1016.05 119.089C1016.05 120.055 1015.74 120.8 1015.14 121.324C1014.54 121.844 1013.67 122.104 1012.55 122.104H1010.2ZM1010.2 121.03H1012.56C1013.26 121.03 1013.8 120.866 1014.17 120.538C1014.55 120.205 1014.73 119.727 1014.73 119.103C1014.73 118.51 1014.55 118.036 1014.17 117.681C1013.8 117.325 1013.29 117.141 1012.64 117.127H1010.2V121.03ZM1021.37 121.974H1019.03V126H1017.71V116.047H1021.01C1022.13 116.047 1022.99 116.302 1023.59 116.812C1024.2 117.323 1024.5 118.066 1024.5 119.041C1024.5 119.661 1024.33 120.201 1024 120.661C1023.66 121.121 1023.2 121.465 1022.6 121.693L1024.94 125.918V126H1023.53L1021.37 121.974ZM1019.03 120.9H1021.05C1021.7 120.9 1022.22 120.732 1022.6 120.395C1022.99 120.057 1023.18 119.606 1023.18 119.041C1023.18 118.426 1023 117.954 1022.63 117.626C1022.27 117.298 1021.74 117.132 1021.04 117.127H1019.03V120.9ZM1031.97 121.399H1027.66V124.927H1032.67V126H1026.35V116.047H1032.6V117.127H1027.66V120.326H1031.97V121.399ZM1037.24 121.563C1036.11 121.24 1035.29 120.843 1034.78 120.374C1034.27 119.9 1034.01 119.317 1034.01 118.624C1034.01 117.84 1034.32 117.193 1034.95 116.683C1035.58 116.168 1036.39 115.91 1037.4 115.91C1038.08 115.91 1038.69 116.042 1039.22 116.307C1039.76 116.571 1040.17 116.936 1040.46 117.4C1040.76 117.865 1040.91 118.373 1040.91 118.925H1039.59C1039.59 118.323 1039.4 117.852 1039.02 117.51C1038.63 117.163 1038.09 116.99 1037.4 116.99C1036.75 116.99 1036.24 117.134 1035.88 117.421C1035.52 117.703 1035.34 118.098 1035.34 118.604C1035.34 119.009 1035.51 119.353 1035.85 119.636C1036.2 119.914 1036.78 120.169 1037.61 120.401C1038.44 120.634 1039.08 120.891 1039.55 121.174C1040.02 121.452 1040.36 121.778 1040.59 122.151C1040.82 122.525 1040.93 122.965 1040.93 123.471C1040.93 124.277 1040.62 124.924 1039.99 125.412C1039.36 125.895 1038.52 126.137 1037.46 126.137C1036.78 126.137 1036.14 126.007 1035.55 125.747C1034.96 125.483 1034.5 125.123 1034.18 124.667C1033.86 124.211 1033.7 123.694 1033.7 123.115H1035.02C1035.02 123.717 1035.24 124.193 1035.68 124.544C1036.13 124.89 1036.72 125.063 1037.46 125.063C1038.16 125.063 1038.69 124.922 1039.06 124.64C1039.43 124.357 1039.61 123.972 1039.61 123.484C1039.61 122.997 1039.44 122.621 1039.1 122.356C1038.76 122.088 1038.14 121.823 1037.24 121.563ZM1045.55 121.563C1044.43 121.24 1043.6 120.843 1043.09 120.374C1042.58 119.9 1042.32 119.317 1042.32 118.624C1042.32 117.84 1042.64 117.193 1043.26 116.683C1043.89 116.168 1044.71 115.91 1045.71 115.91C1046.39 115.91 1047 116.042 1047.53 116.307C1048.07 116.571 1048.49 116.936 1048.78 117.4C1049.07 117.865 1049.22 118.373 1049.22 118.925H1047.9C1047.9 118.323 1047.71 117.852 1047.33 117.51C1046.95 117.163 1046.41 116.99 1045.71 116.99C1045.06 116.99 1044.56 117.134 1044.19 117.421C1043.83 117.703 1043.65 118.098 1043.65 118.604C1043.65 119.009 1043.82 119.353 1044.16 119.636C1044.51 119.914 1045.1 120.169 1045.92 120.401C1046.75 120.634 1047.4 120.891 1047.86 121.174C1048.33 121.452 1048.68 121.778 1048.9 122.151C1049.13 122.525 1049.24 122.965 1049.24 123.471C1049.24 124.277 1048.93 124.924 1048.3 125.412C1047.67 125.895 1046.83 126.137 1045.78 126.137C1045.09 126.137 1044.45 126.007 1043.86 125.747C1043.27 125.483 1042.81 125.123 1042.49 124.667C1042.17 124.211 1042.01 123.694 1042.01 123.115H1043.33C1043.33 123.717 1043.55 124.193 1043.99 124.544C1044.44 124.89 1045.03 125.063 1045.78 125.063C1046.47 125.063 1047 124.922 1047.37 124.64C1047.74 124.357 1047.92 123.972 1047.92 123.484C1047.92 122.997 1047.75 122.621 1047.41 122.356C1047.07 122.088 1046.45 121.823 1045.55 121.563Z" fill="black"/>
<path id="Vector_37" d="M936.955 139.528H906V108.573H936.955V139.528ZM908 137.528H934.955V110.573H908V137.528Z" fill="#3F3D56"/>
<path id="Vector_38" d="M1101 144H955V175H1101V144Z" fill="#D0CDE1"/>
<path id="MONGO.DB" d="M993.851 155.047L997.104 163.168L1000.36 155.047H1002.06V165H1000.75V161.124L1000.87 156.94L997.604 165H996.599L993.338 156.961L993.468 161.124V165H992.155V155.047H993.851ZM1012.03 160.345C1012.03 161.32 1011.87 162.172 1011.54 162.901C1011.21 163.626 1010.75 164.18 1010.15 164.562C1009.55 164.945 1008.84 165.137 1008.04 165.137C1007.26 165.137 1006.56 164.945 1005.96 164.562C1005.35 164.175 1004.88 163.626 1004.54 162.915C1004.21 162.2 1004.04 161.372 1004.03 160.434V159.716C1004.03 158.759 1004.2 157.913 1004.53 157.18C1004.86 156.446 1005.33 155.885 1005.94 155.498C1006.55 155.106 1007.24 154.91 1008.03 154.91C1008.83 154.91 1009.53 155.104 1010.13 155.491C1010.74 155.874 1011.21 156.432 1011.54 157.166C1011.87 157.895 1012.03 158.745 1012.03 159.716V160.345ZM1010.73 159.702C1010.73 158.522 1010.49 157.617 1010.02 156.988C1009.54 156.355 1008.88 156.038 1008.03 156.038C1007.2 156.038 1006.54 156.355 1006.07 156.988C1005.59 157.617 1005.35 158.492 1005.33 159.613V160.345C1005.33 161.489 1005.57 162.389 1006.05 163.045C1006.54 163.697 1007.2 164.022 1008.04 164.022C1008.89 164.022 1009.55 163.715 1010.01 163.1C1010.48 162.48 1010.71 161.593 1010.73 160.44V159.702ZM1021.65 165H1020.33L1015.32 157.33V165H1014V155.047H1015.32L1020.35 162.751V155.047H1021.65V165ZM1031.33 163.694C1030.99 164.177 1030.52 164.54 1029.92 164.781C1029.32 165.018 1028.61 165.137 1027.81 165.137C1027 165.137 1026.28 164.948 1025.65 164.569C1025.02 164.187 1024.53 163.644 1024.19 162.942C1023.85 162.241 1023.67 161.427 1023.66 160.502V159.634C1023.66 158.134 1024.01 156.972 1024.71 156.147C1025.41 155.323 1026.39 154.91 1027.66 154.91C1028.7 154.91 1029.54 155.177 1030.17 155.71C1030.8 156.239 1031.19 156.991 1031.33 157.966H1030.02C1029.77 156.649 1028.99 155.99 1027.67 155.99C1026.79 155.99 1026.12 156.3 1025.67 156.92C1025.21 157.535 1024.99 158.428 1024.98 159.6V160.413C1024.98 161.53 1025.24 162.418 1025.75 163.079C1026.26 163.735 1026.95 164.063 1027.82 164.063C1028.31 164.063 1028.74 164.009 1029.11 163.899C1029.48 163.79 1029.78 163.605 1030.03 163.346V161.11H1027.72V160.044H1031.33V163.694ZM1041.18 160.345C1041.18 161.32 1041.02 162.172 1040.69 162.901C1040.36 163.626 1039.9 164.18 1039.3 164.562C1038.69 164.945 1037.99 165.137 1037.19 165.137C1036.41 165.137 1035.71 164.945 1035.11 164.562C1034.5 164.175 1034.03 163.626 1033.69 162.915C1033.36 162.2 1033.19 161.372 1033.18 160.434V159.716C1033.18 158.759 1033.34 157.913 1033.68 157.18C1034.01 156.446 1034.48 155.885 1035.08 155.498C1035.7 155.106 1036.39 154.91 1037.18 154.91C1037.97 154.91 1038.68 155.104 1039.28 155.491C1039.89 155.874 1040.36 156.432 1040.69 157.166C1041.02 157.895 1041.18 158.745 1041.18 159.716V160.345ZM1039.88 159.702C1039.88 158.522 1039.64 157.617 1039.17 156.988C1038.69 156.355 1038.03 156.038 1037.18 156.038C1036.35 156.038 1035.69 156.355 1035.21 156.988C1034.74 157.617 1034.5 158.492 1034.48 159.613V160.345C1034.48 161.489 1034.72 162.389 1035.2 163.045C1035.68 163.697 1036.35 164.022 1037.19 164.022C1038.04 164.022 1038.69 163.715 1039.16 163.1C1039.62 162.48 1039.86 161.593 1039.88 160.44V159.702ZM1042.28 164.337C1042.28 164.118 1042.35 163.936 1042.47 163.79C1042.61 163.644 1042.8 163.571 1043.06 163.571C1043.32 163.571 1043.52 163.644 1043.65 163.79C1043.79 163.936 1043.86 164.118 1043.86 164.337C1043.86 164.547 1043.79 164.722 1043.65 164.863C1043.52 165.005 1043.32 165.075 1043.06 165.075C1042.8 165.075 1042.61 165.005 1042.47 164.863C1042.35 164.722 1042.28 164.547 1042.28 164.337ZM1046.15 165V155.047H1048.96C1049.82 155.047 1050.59 155.238 1051.25 155.621C1051.92 156.004 1052.43 156.549 1052.79 157.255C1053.15 157.961 1053.34 158.772 1053.34 159.688V160.324C1053.34 161.263 1053.16 162.086 1052.8 162.792C1052.44 163.498 1051.92 164.041 1051.25 164.419C1050.58 164.797 1049.79 164.991 1048.9 165H1046.15ZM1047.46 156.127V163.927H1048.84C1049.85 163.927 1050.64 163.612 1051.2 162.983C1051.76 162.354 1052.04 161.459 1052.04 160.297V159.716C1052.04 158.586 1051.78 157.708 1051.25 157.084C1050.72 156.455 1049.96 156.136 1048.99 156.127H1047.46ZM1055.33 165V155.047H1058.59C1059.67 155.047 1060.48 155.27 1061.02 155.717C1061.57 156.163 1061.84 156.824 1061.84 157.699C1061.84 158.164 1061.71 158.576 1061.44 158.937C1061.18 159.292 1060.82 159.568 1060.36 159.764C1060.9 159.914 1061.33 160.201 1061.64 160.625C1061.95 161.044 1062.11 161.546 1062.11 162.129C1062.11 163.022 1061.82 163.724 1061.24 164.234C1060.66 164.745 1059.84 165 1058.79 165H1055.33ZM1056.65 160.345V163.927H1058.81C1059.42 163.927 1059.9 163.77 1060.25 163.455C1060.61 163.136 1060.79 162.699 1060.79 162.143C1060.79 160.944 1060.14 160.345 1058.83 160.345H1056.65ZM1056.65 159.292H1058.63C1059.2 159.292 1059.66 159.148 1060 158.861C1060.35 158.574 1060.52 158.185 1060.52 157.692C1060.52 157.146 1060.36 156.749 1060.04 156.503C1059.72 156.252 1059.24 156.127 1058.59 156.127H1056.65V159.292Z" fill="black"/>
<path id="Vector_39" d="M936.955 182.961H906V152.006H936.955V182.961ZM908 180.961H934.955V154.006H908V180.961Z" fill="#3F3D56"/>
<path id="Vector_40" d="M189 99.0508C197.837 99.0508 205 91.8873 205 83.0508C205 74.2142 197.837 67.0508 189 67.0508C180.163 67.0508 173 74.2142 173 83.0508C173 91.8873 180.163 99.0508 189 99.0508Z" fill="#F6AAF9"/>
<path id="Vector_41" d="M189 147.051C197.837 147.051 205 139.887 205 131.051C205 122.214 197.837 115.051 189 115.051C180.163 115.051 173 122.214 173 131.051C173 139.887 180.163 147.051 189 147.051Z" fill="#F6AAF9"/>
<path id="Vector_42" d="M189 190.051C197.837 190.051 205 182.887 205 174.051C205 165.214 197.837 158.051 189 158.051C180.163 158.051 173 165.214 173 174.051C173 182.887 180.163 190.051 189 190.051Z" fill="#F6AAF9"/>
<path id="Vector_43" d="M181 96.0508C177.638 96.0508 174.351 95.0538 171.555 93.1858C168.76 91.3178 166.581 88.6628 165.294 85.5564C164.007 82.4501 163.671 79.0319 164.327 75.7342C164.983 72.4366 166.602 69.4075 168.979 67.03C171.357 64.6525 174.386 63.0334 177.683 62.3774C180.981 61.7215 184.399 62.0582 187.506 63.3448C190.612 64.6315 193.267 66.8105 195.135 69.6061C197.003 72.4017 198 75.6885 198 79.0508C197.995 83.5579 196.202 87.879 193.015 91.0661C189.828 94.2531 185.507 96.0458 181 96.0508V96.0508ZM181 64.0508C178.033 64.0508 175.133 64.9305 172.666 66.5787C170.2 68.227 168.277 70.5697 167.142 73.3105C166.006 76.0514 165.709 79.0674 166.288 81.9771C166.867 84.8869 168.296 87.5596 170.393 89.6574C172.491 91.7552 175.164 93.1838 178.074 93.7626C180.983 94.3413 183.999 94.0443 186.74 92.909C189.481 91.7737 191.824 89.8511 193.472 87.3843C195.12 84.9176 196 82.0175 196 79.0508C195.996 75.0739 194.414 71.2612 191.602 68.4492C188.79 65.6371 184.977 64.0553 181 64.0508V64.0508Z" fill="#3F3D56"/>
<path id="Vector_44" d="M181 144.051C177.638 144.051 174.351 143.054 171.555 141.186C168.76 139.318 166.581 136.663 165.294 133.556C164.007 130.45 163.671 127.032 164.327 123.734C164.983 120.437 166.602 117.407 168.979 115.03C171.357 112.652 174.386 111.033 177.683 110.377C180.981 109.721 184.399 110.058 187.506 111.345C190.612 112.632 193.267 114.81 195.135 117.606C197.003 120.402 198 123.689 198 127.051C197.995 131.558 196.202 135.879 193.015 139.066C189.828 142.253 185.507 144.046 181 144.051V144.051ZM181 112.051C178.033 112.051 175.133 112.931 172.666 114.579C170.2 116.227 168.277 118.57 167.142 121.311C166.006 124.051 165.709 127.067 166.288 129.977C166.867 132.887 168.296 135.56 170.393 137.657C172.491 139.755 175.164 141.184 178.074 141.763C180.983 142.341 183.999 142.044 186.74 140.909C189.481 139.774 191.824 137.851 193.472 135.384C195.12 132.918 196 130.018 196 127.051C195.996 123.074 194.414 119.261 191.602 116.449C188.79 113.637 184.977 112.055 181 112.051Z" fill="#3F3D56"/>
<path id="Vector_45" d="M181 187.051C177.638 187.051 174.351 186.054 171.555 184.186C168.76 182.318 166.581 179.663 165.294 176.556C164.007 173.45 163.671 170.032 164.327 166.734C164.983 163.437 166.602 160.407 168.979 158.03C171.357 155.652 174.386 154.033 177.683 153.377C180.981 152.721 184.399 153.058 187.506 154.345C190.612 155.632 193.267 157.81 195.135 160.606C197.003 163.402 198 166.689 198 170.051C197.995 174.558 196.202 178.879 193.015 182.066C189.828 185.253 185.507 187.046 181 187.051V187.051ZM181 155.051C178.033 155.051 175.133 155.931 172.666 157.579C170.2 159.227 168.277 161.57 167.142 164.311C166.006 167.051 165.709 170.067 166.288 172.977C166.867 175.887 168.296 178.56 170.393 180.657C172.491 182.755 175.164 184.184 178.074 184.763C180.983 185.341 183.999 185.044 186.74 183.909C189.481 182.774 191.824 180.851 193.472 178.384C195.12 175.918 196 173.018 196 170.051C195.996 166.074 194.414 162.261 191.602 159.449C188.79 156.637 184.977 155.055 181 155.051V155.051Z" fill="#3F3D56"/>
<path id="Vector_46" d="M989 596.051H987V581.051C987.001 580.255 987.317 579.493 987.88 578.93C988.442 578.368 989.205 578.052 990 578.051H995C995.265 578.051 995.519 577.945 995.707 577.758C995.894 577.57 996 577.316 996 577.051V567.051C996 566.786 995.894 566.531 995.707 566.344C995.519 566.156 995.265 566.051 995 566.051H990C989.205 566.05 988.442 565.734 987.88 565.171C987.317 564.609 987.001 563.846 987 563.051V558.051C987 557.786 986.894 557.531 986.707 557.344C986.519 557.156 986.265 557.051 986 557.051H977C976.205 557.05 975.442 556.734 974.88 556.171C974.317 555.609 974.001 554.846 974 554.051V553.051C974 552.786 973.894 552.531 973.707 552.344C973.519 552.156 973.265 552.051 973 552.051H937C936.735 552.051 936.481 552.156 936.293 552.344C936.106 552.531 936 552.786 936 553.051V554.051C935.999 554.846 935.683 555.609 935.12 556.171C934.558 556.734 933.795 557.05 933 557.051H924C923.735 557.051 923.481 557.156 923.293 557.344C923.106 557.531 923 557.786 923 558.051V563.051C922.999 563.846 922.683 564.609 922.12 565.171C921.558 565.734 920.795 566.05 920 566.051H915C914.735 566.051 914.481 566.156 914.293 566.344C914.106 566.531 914 566.786 914 567.051V577.051C914 577.316 914.106 577.57 914.293 577.758C914.481 577.945 914.735 578.051 915 578.051H921C921.795 578.052 922.558 578.368 923.12 578.93C923.683 579.493 923.999 580.255 924 581.051V596.051H922V581.051C922 580.786 921.894 580.531 921.707 580.344C921.519 580.156 921.265 580.051 921 580.051H915C914.205 580.05 913.442 579.734 912.88 579.171C912.317 578.609 912.001 577.846 912 577.051V567.051C912.001 566.255 912.317 565.493 912.88 564.93C913.442 564.368 914.205 564.052 915 564.051H920C920.265 564.051 920.519 563.945 920.707 563.758C920.894 563.57 921 563.316 921 563.051V558.051C921.001 557.255 921.317 556.493 921.88 555.93C922.442 555.368 923.205 555.052 924 555.051H933C933.265 555.051 933.519 554.945 933.707 554.758C933.894 554.57 934 554.316 934 554.051V553.051C934.001 552.255 934.317 551.493 934.88 550.93C935.442 550.368 936.205 550.052 937 550.051H973C973.795 550.052 974.558 550.368 975.12 550.93C975.683 551.493 975.999 552.255 976 553.051V554.051C976 554.316 976.106 554.57 976.293 554.758C976.481 554.945 976.735 555.051 977 555.051H986C986.795 555.052 987.558 555.368 988.12 555.93C988.683 556.493 988.999 557.255 989 558.051V563.051C989 563.316 989.106 563.57 989.293 563.758C989.481 563.945 989.735 564.051 990 564.051H995C995.795 564.052 996.558 564.368 997.12 564.93C997.683 565.493 997.999 566.255 998 567.051V577.051C997.999 577.846 997.683 578.609 997.12 579.171C996.558 579.734 995.795 580.05 995 580.051H990C989.735 580.051 989.481 580.156 989.293 580.344C989.106 580.531 989 580.786 989 581.051V596.051Z" fill="#3F3D56"/>
<path id="Vector_47" d="M986 666.051H925C924.205 666.05 923.442 665.734 922.88 665.171C922.317 664.609 922.001 663.846 922 663.051V620.051H924V663.051C924 663.316 924.106 663.57 924.293 663.758C924.481 663.945 924.735 664.051 925 664.051H986C986.265 664.051 986.519 663.945 986.707 663.758C986.894 663.57 987 663.316 987 663.051V620.051H989V663.051C988.999 663.846 988.683 664.609 988.12 665.171C987.558 665.734 986.795 666.05 986 666.051V666.051Z" fill="#3F3D56"/>
<path id="Vector_48" d="M999 603.051H924C922.895 603.051 922 603.946 922 605.051V625.051C922 626.155 922.895 627.051 924 627.051H999C1000.1 627.051 1001 626.155 1001 625.051V605.051C1001 603.946 1000.1 603.051 999 603.051Z" fill="#F6AAF9"/>
<path id="Vector_49" d="M992.5 621.051H917.5C916.705 621.05 915.942 620.734 915.38 620.171C914.817 619.609 914.501 618.846 914.5 618.051V598.051C914.501 597.255 914.817 596.493 915.38 595.93C915.942 595.368 916.705 595.052 917.5 595.051H992.5C993.295 595.052 994.058 595.368 994.62 595.93C995.183 596.493 995.499 597.255 995.5 598.051V618.051C995.499 618.846 995.183 619.609 994.62 620.171C994.058 620.734 993.295 621.05 992.5 621.051ZM917.5 597.051C917.235 597.051 916.981 597.156 916.793 597.344C916.606 597.531 916.5 597.786 916.5 598.051V618.051C916.5 618.316 916.606 618.57 916.793 618.758C916.981 618.945 917.235 619.051 917.5 619.051H992.5C992.765 619.051 993.019 618.945 993.207 618.758C993.394 618.57 993.5 618.316 993.5 618.051V598.051C993.5 597.786 993.394 597.531 993.207 597.344C993.019 597.156 992.765 597.051 992.5 597.051H917.5Z" fill="#3F3D56"/>
<path id="Vector_50" d="M492.408 40.6791C510.83 19.9612 536.58 7.21094 564.225 5.11942C591.87 3.0279 619.246 11.7587 640.575 29.4692C639.701 28.6381 638.836 27.8003 637.927 26.9927C616.734 8.16129 588.93 -1.48151 560.628 0.185046C532.326 1.8516 505.845 14.691 487.009 35.8796C468.173 57.0682 458.524 84.8708 460.184 113.173C461.844 141.475 474.677 167.959 495.861 186.8C496.77 187.608 497.703 188.368 498.631 189.139C478.544 170.031 466.666 143.867 465.505 116.167C464.344 88.468 473.99 61.4011 492.408 40.6791V40.6791Z" fill="#2F2E41"/>
<path id="smoke1" d="M953 543.051C950.342 525.143 949.639 506.999 950.905 488.94L953 459.051C941.458 482.016 944.067 512.243 953 543.051V543.051Z" fill="#D0CDE1"/>
<path id="HTML" d="M28.8047 88H27.4854V83.3994H22.4678V88H21.1553V78.0469H22.4678V82.3262H27.4854V78.0469H28.8047V88ZM37.8076 79.127H34.6084V88H33.3027V79.127H30.1104V78.0469H37.8076V79.127ZM40.9795 78.0469L44.2334 86.168L47.4873 78.0469H49.1895V88H47.877V84.124L48 79.9404L44.7324 88H43.7275L40.4668 79.9609L40.5967 84.124V88H39.2842V78.0469H40.9795ZM52.8262 86.9268H57.543V88H51.5068V78.0469H52.8262V86.9268Z" fill="black"/>
<path id="smoke2" d="M962 548.051C960.72 537.365 960.383 526.587 960.992 515.842L962 498.051C956.447 511.721 957.702 529.713 962 548.051Z" fill="#D0CDE1"/>
</g>
</g>
</g>
<defs>
<clipPath id="clip0">
<rect width="1101" height="666.051" fill="white"/>
</clipPath>
</defs>
</svg>
